<?xml version="1.0" standalone="no"?>
<!DOCTYPE svg PUBLIC "-//W3C//DTD SVG 20010904//EN"
 "http://www.w3.org/TR/2001/REC-SVG-20010904/DTD/svg10.dtd">
<svg version="1.0" xmlns="http://www.w3.org/2000/svg"
 width="513.000000pt" height="517.000000pt" viewBox="0 0 513.000000 517.000000"
 preserveAspectRatio="xMidYMid meet">

<g transform="translate(0.000000,517.000000) scale(0.100000,-0.100000)"
fill="#000000" stroke="none">
<path d="M1193 1955 l-81 -185 34 0 c29 0 37 5 51 35 16 34 18 35 75 35 57 0
58 -1 72 -35 14 -32 19 -35 55 -35 l40 0 -33 78 c-62 144 -128 292 -130 292
-1 0 -38 -83 -83 -185z m107 -51 c0 -9 -11 -14 -30 -14 -35 0 -36 4 -14 56
l16 38 14 -33 c8 -18 14 -40 14 -47z"/>
<path d="M2940 1944 l0 -176 94 4 c82 3 98 6 119 26 14 13 27 35 30 49 7 35
-11 81 -35 94 -18 10 -18 12 -3 29 9 9 18 34 22 53 5 31 1 40 -25 67 -29 29
-34 30 -116 30 l-86 0 0 -176z m144 100 c19 -18 19 -20 6 -45 -8 -13 -21 -19
-45 -19 -34 0 -35 1 -35 40 0 38 2 40 29 40 16 0 37 -7 45 -16z m14 -146 c32
-32 1 -68 -57 -68 -29 0 -31 2 -31 40 0 40 0 40 38 40 21 0 43 -5 50 -12z"/>
<path d="M2400 2076 c-27 -33 18 -72 48 -42 13 13 14 20 6 34 -15 23 -38 26
-54 8z"/>
<path d="M3763 2083 c-7 -2 -13 -15 -13 -28 0 -31 36 -43 58 -21 27 27 -8 65
-45 49z"/>
<path d="M1510 2025 c0 -38 -3 -45 -20 -45 -14 0 -20 -7 -20 -24 0 -15 7 -26
20 -29 18 -5 20 -14 20 -81 l0 -76 30 0 30 0 0 80 c0 79 0 80 25 80 20 0 25 5
25 25 0 20 -5 25 -25 25 -23 0 -25 4 -25 45 0 43 -1 45 -30 45 -29 0 -30 -2
-30 -45z"/>
<path d="M1735 1980 c-87 -36 -93 -165 -10 -205 88 -41 179 10 179 100 0 19
-6 45 -13 59 -24 45 -103 68 -156 46z m92 -76 c15 -24 15 -29 2 -53 -18 -32
-54 -39 -80 -15 -23 21 -24 51 -2 76 24 26 59 23 80 -8z"/>
<path d="M2065 1978 c-11 -6 -23 -15 -26 -20 -3 -6 -9 -3 -12 6 -4 10 -18 16
-37 16 l-30 0 0 -105 0 -105 35 0 35 0 0 53 c0 62 17 101 46 105 26 4 34 -19
34 -100 0 -58 0 -58 30 -58 29 0 30 2 30 45 0 66 24 117 52 113 21 -3 23 -9
26 -80 l3 -78 34 0 35 0 0 84 c0 69 -4 88 -21 110 -25 31 -66 35 -99 8 -23
-18 -24 -18 -42 0 -20 20 -63 23 -93 6z"/>
<path d="M3346 1965 c-34 -23 -36 -23 -36 -5 0 16 -7 20 -30 20 l-30 0 0 -105
0 -105 29 0 c27 0 28 2 34 56 6 59 28 94 59 94 11 0 18 7 18 19 0 11 3 26 6
35 9 23 -8 20 -50 -9z"/>
<path d="M3464 1956 c-30 -30 -34 -40 -34 -85 0 -41 5 -57 24 -76 32 -32 85
-41 125 -21 17 9 31 12 31 6 0 -5 14 -10 30 -10 l30 0 0 105 0 105 -30 0 c-16
0 -30 -5 -30 -11 0 -5 -10 -3 -22 5 -39 27 -86 20 -124 -18z m138 -51 c19 -41
0 -79 -40 -83 -43 -4 -62 12 -62 52 0 41 16 56 57 56 26 0 36 -6 45 -25z"/>
<path d="M4000 1983 c-8 -3 -23 -12 -32 -21 -16 -14 -18 -13 -18 1 0 12 -9 17
-30 17 l-30 0 0 -105 0 -105 35 0 35 0 0 63 c0 69 20 102 57 95 15 -3 18 -15
21 -81 l3 -77 34 0 35 0 0 89 c0 85 -1 91 -26 110 -26 21 -54 25 -84 14z"/>
<path d="M2390 1875 l0 -105 35 0 35 0 0 105 0 105 -35 0 -35 0 0 -105z"/>
<path d="M2557 1959 c-64 -49 -53 -155 17 -184 41 -18 74 -19 111 -5 26 10 26
12 12 33 -11 17 -22 21 -47 19 -35 -4 -70 20 -70 47 0 9 7 27 16 40 14 20 22
22 54 17 28 -4 41 -2 51 10 35 42 -95 63 -144 23z"/>
<path d="M3750 1875 l0 -105 30 0 30 0 0 105 0 105 -30 0 -30 0 0 -105z"/>
</g>
</svg>
